<?xml version="1.0" encoding="UTF-8" standalone="no"?> <svg id="Outline" xmlns="http://www.w3.org/2000/svg" viewBox="0 0 64 64"><title>Bowl-chopsticks-noodles-rice-rice bowl</title><path d="M19,31h2a2,2,0,0,1,2-2V27A4,4,0,0,0,19,31Z"/><path d="M31,27v2a2,2,0,0,1,2,2h2A4,4,0,0,0,31,27Z"/><path d="M42,28a4,4,0,0,0-4,4h2a2,2,0,0,1,4,0h2A4,4,0,0,0,42,28Z"/><path d="M42.293,10.121A20.765,20.765,0,0,1,57.071,4H62V2H57.071a22.745,22.745,0,0,0-16.1,6.624A3,3,0,0,0,38.995,6.17C39,6.113,39,6.057,39,6a3,3,0,0,0-5.531-1.609A2.963,2.963,0,0,0,32,4a3,3,0,0,0-2.871,2.129A3,3,0,0,0,27,9H26a1,1,0,0,0-1,1v.879A6.122,6.122,0,0,0,31.121,17h8.222a4.968,4.968,0,0,0,3.535-1.465l1.971-1.971A18.884,18.884,0,0,1,58.284,8H62V6H58.284a20.87,20.87,0,0,0-14.849,6.15l-1.971,1.971A3.017,3.017,0,0,1,39.343,15H31.121a4.153,4.153,0,0,1-2.914-1.207A4.089,4.089,0,0,1,27,11H40.171A2.978,2.978,0,0,0,42.293,10.121ZM30,8a1,1,0,0,0,1-1,1,1,0,0,1,1-1,.985.985,0,0,1,.865.516,1,1,0,0,0,1.006.5L34,7a1,1,0,0,0,1-1,1,1,0,0,1,2,0,.978.978,0,0,1-.149.512,1,1,0,0,0,.038,1.067,1.033,1.033,0,0,0,.992.436A1,1,0,0,1,39,9H29A1,1,0,0,1,30,8Z"/><path d="M30,52A17.127,17.127,0,0,1,13.423,38.777l-1.95.446A19.143,19.143,0,0,0,30,54Z"/><path d="M39,61V57.446A23.036,23.036,0,0,0,57,35a1,1,0,0,0-1-1H54a4.007,4.007,0,0,0-3-3.874c0-.042,0-.084,0-.126a4.007,4.007,0,0,0-3.1-3.9A4.007,4.007,0,0,0,44,23a3.827,3.827,0,0,0-1.169.182A3.994,3.994,0,0,0,38.9,22.161,4.016,4.016,0,0,0,35,19a3.949,3.949,0,0,0-2,.546A3.949,3.949,0,0,0,31,19a3.991,3.991,0,0,0-3.466,2.027,3.96,3.96,0,0,0-2.365,1.155,4,4,0,0,0-4,1A3.827,3.827,0,0,0,20,23a4.007,4.007,0,0,0-3.9,3.1A4.007,4.007,0,0,0,13,30c0,.042,0,.084,0,.126A4.007,4.007,0,0,0,10,34H8a1,1,0,0,0-1,1A23.036,23.036,0,0,0,25,57.446V61a1,1,0,0,0,1,1H38A1,1,0,0,0,39,61ZM13.973,32h0l.139.016A1,1,0,0,0,15.13,30.68,1.97,1.97,0,0,1,15,30a2,2,0,0,1,2-2,1,1,0,0,0,1-1,2,2,0,0,1,2-2,1.96,1.96,0,0,1,.976.27,1,1,0,0,0,1.339-.334,1.976,1.976,0,0,1,2.661-.666,1,1,0,0,0,1.339-.334A1.974,1.974,0,0,1,27.962,23l.167.017a1,1,0,0,0,.994-.67A2,2,0,0,1,31,21a1.974,1.974,0,0,1,1.331.521,1,1,0,0,0,1.338,0,1.977,1.977,0,0,1,3.31,1.319,1,1,0,0,0,.336.67,1.978,1.978,0,0,1,.37.426,1,1,0,0,0,1.339.334,1.976,1.976,0,0,1,2.661.666,1,1,0,0,0,1.339.334A1.96,1.96,0,0,1,44,25a2,2,0,0,1,2,2,1,1,0,0,0,1,1,2,2,0,0,1,2,2,1.97,1.97,0,0,1-.13.68,1,1,0,0,0,1.017,1.337c.021,0,.092-.014.113-.017a2,2,0,0,1,2,2H12A2,2,0,0,1,13.973,32Zm-4.95,4H54.977a20.911,20.911,0,0,1-.581,4H44v2h9.8a20.811,20.811,0,0,1-.836,2H40v2H51.862A20.992,20.992,0,0,1,34,56H30A21.026,21.026,0,0,1,9.023,36ZM37,60H27V58H37Z"/></svg>