<?xml version="1.0" encoding="UTF-8" standalone="no"?> <svg width="32" height="32" viewBox="0 0 32 32" fill="none" xmlns="http://www.w3.org/2000/svg">
<path d="M15.5201 15.0597C14.9565 15.6219 14.6394 16.385 14.6384 17.1811C14.6375 17.9772 14.9529 18.7411 15.5151 19.3047C16.0774 19.8683 16.8405 20.1854 17.6366 20.1863C18.4327 20.1873 19.1965 19.8719 19.7601 19.3097V19.3097C20.0398 19.031 20.2617 18.6998 20.4131 18.3351C20.5645 17.9705 20.6425 17.5795 20.6425 17.1847C20.6425 16.7898 20.5645 16.3989 20.4131 16.0342C20.2617 15.6696 20.0398 15.3384 19.7601 15.0597C19.1878 14.5167 18.429 14.214 17.6401 14.214C16.8512 14.214 16.0924 14.5167 15.5201 15.0597V15.0597ZM18.3501 17.8897C18.1628 18.0759 17.9093 18.1805 17.6451 18.1805C17.3809 18.1805 17.1275 18.0759 16.9401 17.8897C16.7539 17.7023 16.6493 17.4489 16.6493 17.1847C16.6493 16.9205 16.7539 16.667 16.9401 16.4797C17.1275 16.2934 17.3809 16.1889 17.6451 16.1889C17.9093 16.1889 18.1628 16.2934 18.3501 16.4797C18.5364 16.667 18.6409 16.9205 18.6409 17.1847C18.6409 17.4489 18.5364 17.7023 18.3501 17.8897ZM29.6601 2.33967C29.5234 2.20149 29.3494 2.10615 29.1594 2.0653C28.9693 2.02445 28.7715 2.03987 28.5901 2.10967L6.81012 10.6897C6.41988 10.3293 5.93363 10.0896 5.41012 9.99967C4.92074 9.90865 4.41604 9.94784 3.94658 10.1133C3.47713 10.2788 3.05942 10.5648 2.73531 10.9426C2.4112 11.3204 2.19208 11.7767 2.0999 12.2659C2.00772 12.755 2.04573 13.2598 2.21012 13.7297C3.54917 17.4306 5.67856 20.7953 8.45012 23.5897C11.2445 26.3612 14.6092 28.4906 18.3101 29.8297C18.6294 29.9502 18.9689 30.0079 19.3101 29.9997C19.723 29.9846 20.1276 29.8799 20.496 29.6929C20.8644 29.5059 21.1878 29.2411 21.4436 28.9167C21.6995 28.5923 21.8818 28.2162 21.9779 27.8144C22.074 27.4126 22.0816 26.9947 22.0001 26.5897C21.8945 26.0632 21.6413 25.5776 21.2701 25.1897L25.9701 13.1897C26.0249 13.0509 26.0479 12.9017 26.0375 12.7529C26.0272 12.6041 25.9836 12.4595 25.9101 12.3297C25.8358 12.2002 25.7335 12.089 25.6107 12.0042C25.4878 11.9194 25.3475 11.8632 25.2001 11.8397C24.9987 11.8101 24.8125 11.7153 24.6701 11.5697C24.5764 11.4767 24.502 11.3661 24.4512 11.2442C24.4005 11.1224 24.3743 10.9917 24.3743 10.8597C24.3743 10.7277 24.4005 10.597 24.4512 10.4751C24.502 10.3532 24.5764 10.2426 24.6701 10.1497C24.8341 9.96473 25.0607 9.84706 25.3063 9.81936C25.5519 9.79166 25.7991 9.85589 26.0001 9.99967C26.1244 10.0847 26.2663 10.1406 26.4152 10.1631C26.5642 10.1856 26.7162 10.1742 26.8601 10.1297C27.0044 10.0859 27.1369 10.0101 27.2477 9.90796C27.3585 9.80579 27.4448 9.67989 27.5001 9.53967L29.9101 3.40967C29.9775 3.22639 29.9897 3.0274 29.9452 2.83726C29.9008 2.64711 29.8017 2.47414 29.6601 2.33967V2.33967ZM18.6601 8.15967C18.6312 8.62584 18.4701 9.07412 18.1957 9.45211C17.9214 9.83011 17.5451 10.1222 17.1108 10.2942C16.6766 10.4662 16.2024 10.5111 15.7436 10.4235C15.2848 10.3359 14.8605 10.1195 14.5201 9.79967L18.6601 8.15967ZM19.8101 27.7097C19.6992 27.8224 19.5584 27.9012 19.4043 27.9366C19.2502 27.972 19.0891 27.9627 18.9401 27.9097C15.519 26.669 12.4099 24.6964 9.83012 22.1297C7.27534 19.5402 5.31643 16.4244 4.09012 12.9997C4.04497 12.8737 4.03094 12.7387 4.04924 12.6061C4.06755 12.4736 4.11763 12.3474 4.19522 12.2384C4.27282 12.1293 4.37563 12.0407 4.49488 11.98C4.61414 11.9193 4.7463 11.8883 4.88012 11.8897H5.00012C5.13392 11.9157 5.25938 11.9739 5.36565 12.0593C5.47193 12.1447 5.55583 12.2546 5.61012 12.3797C6.95623 15.4743 8.86525 18.292 11.2401 20.6897C13.6377 23.0645 16.4555 24.9736 19.5501 26.3197C19.6752 26.374 19.7851 26.4579 19.8705 26.5641C19.9558 26.6704 20.0141 26.7959 20.0401 26.9297C20.077 27.0651 20.0789 27.2078 20.0457 27.3442C20.0125 27.4806 19.9452 27.6063 19.8501 27.7097H19.8101ZM26.0001 7.87967C25.5204 7.78786 25.0255 7.81457 24.5585 7.95748C24.0914 8.10038 23.6663 8.35515 23.3201 8.69967C22.7583 9.26217 22.4428 10.0247 22.4428 10.8197C22.4428 11.6147 22.7583 12.3772 23.3201 12.9397C23.4692 13.0896 23.6334 13.2236 23.8101 13.3397L19.5701 24.1497C17.0216 22.9335 14.6958 21.2974 12.6901 19.3097C10.7046 17.3021 9.06871 14.9767 7.85012 12.4297L12.5601 10.5797C12.7007 10.7941 12.8651 10.9921 13.0501 11.1697C13.7131 11.8403 14.5709 12.2847 15.5011 12.4394C16.4314 12.5941 17.3868 12.4513 18.2312 12.0314C19.0756 11.6114 19.7659 10.9356 20.2038 10.1004C20.6418 9.26518 20.8049 8.31305 20.6701 7.37967L27.1901 4.81967L26.0001 7.87967Z" fill="black"/>
</svg>
