<svg xmlns="http://www.w3.org/2000/svg" enable-background="new 0 0 64 64" viewBox="0 0 64 64"><path fill="#050505" d="M45.71 8.22l1.95-4.09 3.04 1.45c.13.06.28.09.42.09.36 0 .71-.2.88-.55.23-.48.03-1.06-.46-1.29l-3.91-1.86c0 0 0 0-.01 0s0 0-.01 0L43.71.1c-.48-.23-1.06-.03-1.29.46-.23.48-.03 1.06.46 1.29l3.04 1.45-1.95 4.09c-13.46-5.84-29.28 0-35.64 13.35-.23.48-.03 1.06.46 1.29 0 0 .01 0 .01 0l47.72 22.73c.13.06.28.09.42.09.36 0 .71-.2.88-.55 0 0 0 0 0 0 0 0 0 0 0 0C64.16 30.95 58.73 14.98 45.71 8.22zM44.01 9.53C44.01 9.53 44.01 9.53 44.01 9.53 44.01 9.53 44.01 9.53 44.01 9.53c12.39 5.9 17.82 20.56 12.44 33.05L10.51 20.7C16.82 8.66 31.63 3.63 44.01 9.53zM24.35 30.49c-.41-.34-1.02-.28-1.36.13-1.27 1.55-.72 2.83-.1 3.91.3.53.57 1.27.13 1.76-.36.4-.33 1.01.07 1.37.19.17.42.25.65.25.27 0 .53-.11.72-.32.94-1.04.98-2.51.11-4.02-.56-.98-.52-1.18-.08-1.71C24.82 31.44 24.76 30.83 24.35 30.49zM29.72 35.55c-.41-.34-1.02-.28-1.36.13-1.08 1.31-.44 2.41-.1 3.01.13.22.31.63.13.84-.36.4-.33 1.01.07 1.37.19.17.42.25.65.25.27 0 .53-.11.72-.32.73-.81.77-1.94.11-3.1-.31-.54-.3-.56-.09-.81C30.19 36.5 30.13 35.89 29.72 35.55zM18.96 35.55c-.41-.34-1.02-.28-1.36.13-1.08 1.31-.44 2.41-.1 3.01.13.22.31.63.13.84-.36.4-.33 1.01.07 1.37.19.17.42.25.65.25.27 0 .53-.11.72-.32.73-.81.77-1.94.11-3.1-.31-.54-.3-.56-.09-.81C19.43 36.5 19.37 35.89 18.96 35.55zM42.89 53.59h-1.35c0-.02.01-.05.01-.07 0-1.96-1.32-3.61-3.12-4.11.03-.19.04-.39.04-.59 0-2.35-1.91-4.26-4.26-4.26-.64 0-1.27.15-1.84.42-.86-1.9-2.79-3.21-4.95-3.21-1.47 0-2.84.59-3.84 1.6-.78-1.11-2.06-1.83-3.5-1.83-1.57 0-2.97.87-3.71 2.17-.77-.45-1.65-.69-2.55-.69-2.78 0-5.04 2.26-5.04 5.04 0 .44.06.87.17 1.29-1.76.37-3.08 1.93-3.08 3.79 0 .15.01.3.03.45H4.51c-.33 0-.63.17-.81.44-.18.28-.21.62-.07.92 1.76 3.94 4.61 5.32 7.63 6.78 1.26.61 2.57 1.25 3.84 2.1.16.11.35.17.54.17h16.14c.19 0 .38-.06.54-.17 1.27-.85 2.57-1.49 3.84-2.1 3.01-1.46 5.86-2.84 7.63-6.78.13-.3.11-.65-.07-.92C43.53 53.76 43.22 53.59 42.89 53.59zM7.79 53.13c0-1.07.87-1.94 1.94-1.94.17 0 .31.02.44.05.39.11.81-.04 1.04-.37.23-.33.24-.77.01-1.11-.34-.51-.52-1.1-.52-1.72 0-1.71 1.39-3.1 3.1-3.1.88 0 1.69.36 2.29 1.01.25.27.64.38 1 .27.36-.11.62-.42.67-.79.17-1.12 1.15-1.97 2.3-1.97 1.17 0 2.16.88 2.31 2.04.05.43.39.78.82.84.43.06.85-.17 1.03-.57.56-1.26 1.81-2.08 3.19-2.08 1.72 0 3.2 1.28 3.45 2.99.05.37.31.67.67.78.35.11.74.01 1-.26.44-.46 1.03-.71 1.68-.71 1.28 0 2.32 1.04 2.32 2.32 0 .34-.07.68-.22 1-.14.3-.12.65.06.93.18.28.49.45.82.45h.1c1.28 0 2.32 1.04 2.32 2.32 0 .02 0 .05-.01.07H7.85C7.81 53.44 7.79 53.29 7.79 53.13zM35.31 59.99c-1.25.6-2.53 1.23-3.83 2.07H15.92c-1.3-.84-2.58-1.47-3.83-2.07-2.38-1.15-4.48-2.17-5.96-4.46h35.14C39.79 57.82 37.68 58.84 35.31 59.99z"/></svg>