<svg xmlns="http://www.w3.org/2000/svg" data-name="Layer 1" viewBox="0 0 512 512"><g data-name="&lt;Group&gt;"><path d="M424.2,18H87.8C72.169,18,59,30.3,59,45.407V451.1c0,.135.224.273.224.408C59.224,474.938,79.3,494,103.7,494H399.736C415.368,494,428,481.706,428,466.6V428.765c14-1.837,25-13.312,25-27.15V45.4C453,30.294,439.833,18,424.2,18ZM408,466.6c0,4.08-3.661,7.4-8.264,7.4H103.7c-13.372,0-24.252-10.089-24.252-22.49l0-.3C79.619,438.942,90.433,429,103.7,429H408Zm25-64.983c0,4.083-4.195,7.385-8.8,7.385H103.7A46.992,46.992,0,0,0,79,415.982V45.407C79,41.324,83.2,38,87.8,38H424.2c4.6,0,8.8,3.322,8.8,7.4Z" data-name="&lt;Compound Path&gt;"/><path d="M215.487 232.907l6.918-140.814a28.011 28.011 0 0 0-7.825-20.848 30.452 30.452 0 0 0-43.782 0 28.005 28.005 0 0 0-7.824 20.847l6.918 140.814a59.129 59.129 0 0 0-18.819 16.709c-10.262 13.715-15.915 31.792-15.915 50.9s5.653 37.188 15.915 50.9c10.912 14.581 25.692 22.611 41.616 22.611s30.705-8.03 41.617-22.611c10.262-13.714 15.915-31.792 15.915-50.9s-5.653-37.189-15.915-50.9A59.139 59.139 0 0 0 215.487 232.907zM182.95 91.111a8.188 8.188 0 0 1 2.334-6.075 10.457 10.457 0 0 1 14.811 0 8.192 8.192 0 0 1 2.334 6.076l-6.68 136c-1.015-.066-2.035-.1-3.06-.1s-2.044.036-3.059.1zm35.343 248.327c-7.043 9.413-16.136 14.6-25.6 14.6s-18.56-5.182-25.6-14.6c-7.692-10.278-11.928-24.1-11.928-38.918s4.236-28.642 11.928-38.92c7.043-9.412 16.136-14.6 25.6-14.6s18.561 5.183 25.6 14.6c7.692 10.278 11.928 24.1 11.928 38.92S225.985 329.16 218.293 339.438zM374.925 75.48a18.089 18.089 0 0 0-36.055-.737c-.009.095-.016.191-.022.285l-1.065 17.139-1.065-17.139c-.006-.095-.013-.423-.022-.518A18.276 18.276 0 0 0 318.605 58h-.03c-.091 0-.18.23-.27.23a18.058 18.058 0 0 0-17.826 16.4c-.009.095-.016.249-.022.343L299.39 92.155l-1.066-17.141c-.006-.095-.013-.182-.022-.277a17.95 17.95 0 0 0-17.826-16.278c-.1 0-.2 0-.293 0a17.845 17.845 0 0 0-17.945 17.082l-1.912 61.985c0 .1 0 .206 0 .309 0 28.909 14.516 56.278 35.321 68.18L288.869 343.9a28.007 28.007 0 0 0 7.825 20.848 30.452 30.452 0 0 0 43.782 0A28 28 0 0 0 348.3 343.9l-6.774-137.891c20.822-11.931 35.318-39.283 35.318-68.172 0-.1 0-.206 0-.309zM325.99 350.959a10.457 10.457 0 0 1-14.811 0 8.189 8.189 0 0 1-2.335-6.076l6.519-132.7c1.077.079 2.155.13 3.234.13s2.14-.051 3.209-.129l6.518 132.7A8.192 8.192 0 0 1 325.99 350.959zM327.536 190.6a24.276 24.276 0 0 1-17.96-.022c-16.369-6.366-29.2-29.446-29.255-52.588l.623-20.177.785 12.729A10.072 10.072 0 0 0 291.71 140h15.358a10.071 10.071 0 0 0 9.981-9.46l1.537-24.776 1.537 24.8A10.054 10.054 0 0 0 330.1 140h15.357a10.07 10.07 0 0 0 9.981-9.461l.782-12.619.62 20.089C356.79 161.15 343.959 184.209 327.536 190.6z" data-name="&lt;Compound Path&gt;"/></g></svg>